<svg xmlns="http://www.w3.org/2000/svg" width="48" height="48" viewBox="0 0 48 48" fill="none"><g clip-path="url(#clip0_1_3952)"><path d="M27.8253 29.4474C35.8796 29.4474 42.4323 22.8424 42.4323 14.7238C42.4323 6.60516 35.8796 0 27.8253 0C19.771 0 13.2183 6.60506 13.2183 14.7237C13.2183 22.8423 19.771 29.4474 27.8253 29.4474ZM23.1316 19.3182C23.5565 18.6688 24.4276 18.4864 25.0771 18.9115C26.0236 19.5306 26.3805 19.5876 27.6294 19.5789C28.8483 19.5708 29.5556 18.6623 29.6969 17.8215C29.7657 17.4125 29.792 16.4138 28.5543 15.9763C27.1025 15.463 25.6167 14.8764 24.5831 14.0657C23.5495 13.2549 23.0761 11.8553 23.3479 10.4133C23.6426 8.84998 24.7331 7.60553 26.194 7.16554C26.2072 7.16161 26.2201 7.15842 26.2333 7.15449V6.62174C26.2333 5.84558 26.8626 5.21633 27.6388 5.21633C28.4149 5.21633 29.0442 5.84558 29.0442 6.62174V7.06595C29.9987 7.29381 30.6654 7.73052 30.936 7.93281C31.5577 8.39762 31.6849 9.27825 31.2202 9.90001C30.7555 10.5218 29.8749 10.649 29.2531 10.1841C28.9651 9.96878 28.1692 9.50593 27.0046 9.85682C26.3243 10.0618 26.1479 10.733 26.11 10.9338C26.0357 11.3284 26.1191 11.6982 26.3178 11.8539C27.0342 12.4159 28.324 12.9135 29.4911 13.326C31.6432 14.0867 32.8398 16.0805 32.4689 18.2874C32.2868 19.3702 31.7421 20.3748 30.9349 21.1164C30.3851 21.6216 29.7452 21.9818 29.0442 22.1874V22.8256C29.0442 23.6018 28.4149 24.231 27.6388 24.231C26.8626 24.231 26.2333 23.6018 26.2333 22.8256V22.3276C25.3246 22.2174 24.5617 21.9332 23.5382 21.2637C22.8888 20.8388 22.7067 19.9677 23.1316 19.3182Z" fill="#2780ED"></path><path d="M5.32698 34.1699H2.12245C1.34629 34.1699 0.717041 34.7992 0.717041 35.5753V46.5928C0.717041 47.369 1.34629 47.9982 2.12245 47.9982H5.32708V34.1699H5.32698Z" fill="#0050B2"></path><path d="M46.8708 34.0715C44.2367 31.4373 39.9504 31.4372 37.3164 34.0715L33.1064 38.2814L31.3808 40.007C30.6834 40.7044 29.7375 41.0962 28.7513 41.0962H20.3606C19.6028 41.0962 18.9507 40.5138 18.915 39.7568C18.8769 38.9486 19.5209 38.2814 20.3208 38.2814H28.8494C30.5642 38.2814 32.0515 37.0606 32.3462 35.3714C32.414 34.9835 32.4493 34.5846 32.4493 34.1776C32.4494 33.4001 31.8194 32.7691 31.0419 32.7691H26.3687C24.8415 32.7691 23.3749 32.0764 21.8221 31.3427C20.1934 30.5734 18.5094 29.7779 16.5402 29.6469C14.8179 29.5321 13.0917 29.7207 11.4092 30.2065C9.60778 30.7267 8.31283 32.3272 8.1558 34.175C8.1498 34.1745 8.14371 34.1745 8.13762 34.1741V47.9931L32.3507 47.9998C34.0155 47.9998 35.5807 47.3514 36.7581 46.1741L46.8705 36.0617C47.4204 35.5123 47.4204 34.6211 46.8708 34.0715Z" fill="#0050B2"></path></g><defs><clipPath id="clip0_1_3952"><rect width="48" height="48" fill="white"></rect></clipPath></defs></svg>