<svg xmlns="http://www.w3.org/2000/svg" width="48" height="48" viewBox="0 0 48 48" fill="none"><g clip-path="url(#clip0_1_3974)"><path d="M18.5158 24.2648C18.2175 24.4653 18.071 24.8737 18.2082 25.1216C18.4514 25.5607 19.2242 25.7894 20.0969 26.1531C20.4606 25.6622 20.8528 25.1938 21.2707 24.7497C20.8826 24.7904 20.4797 24.6716 20.1703 24.3862C19.8506 24.0916 18.941 23.9788 18.5158 24.2648Z" fill="#0050B2"></path><path d="M22.8047 8.70264H15.4922C14.7071 8.70264 14.0906 9.34717 14.0906 10.1041C14.0906 10.8769 14.7194 11.5057 15.4922 11.5057H22.8047C23.5776 11.5057 24.2063 10.8769 24.2063 10.1041C24.2063 9.34426 23.5883 8.70264 22.8047 8.70264Z" fill="#0050B2"></path><path d="M17.1398 33.7971C16.5999 33.6317 16.1027 33.4022 15.6918 33.1334C15.0419 32.7082 14.8597 31.8366 15.2849 31.1867C15.7101 30.5367 16.5816 30.3543 17.2316 30.7798C17.3663 30.868 17.5186 30.945 17.6803 31.0106C17.9254 30.1721 18.24 29.3631 18.617 28.5897C17.6456 28.2061 16.4371 27.7285 15.748 26.4844C14.7609 24.7022 15.648 22.3194 17.6795 21.5569V21.3495C17.6795 20.5729 18.3091 19.9433 19.0857 19.9433C19.8623 19.9433 20.492 20.5729 20.492 21.3495V21.4628C21.5673 21.7646 22.6823 22.4675 22.5136 23.5671C24.8842 21.5475 27.8692 20.2286 31.1456 19.9361C29.2991 17.4388 27.3217 15.2254 25.6795 13.1814C24.926 13.8858 23.9152 14.3183 22.8047 14.3183H15.4922C14.3783 14.3183 13.3648 13.8831 12.6106 13.1748C8.93034 17.7536 2.8125 24.0687 2.8125 29.9973C2.8125 35.0907 5.13094 38.8023 9.5175 40.7298C12.5934 42.0817 16.0097 42.3123 18.7322 42.3311C17.3857 39.683 16.8473 36.7304 17.1398 33.7971Z" fill="#0050B2"></path><path d="M14.0061 6.16144C14.4686 5.98659 14.9692 5.89003 15.4922 5.89003H22.8047C23.3277 5.89003 23.8285 5.98659 24.291 6.16153C25.2537 5.01103 25.7367 5.33231 26.1647 4.58906C27.3418 2.55009 25.8725 0 23.5153 0H14.7816C12.4283 0 10.9533 2.54691 12.1322 4.58906C12.556 5.32519 13.0437 5.01178 14.0061 6.16144Z" fill="#0050B2"></path><path d="M32.5312 22.6875C25.5526 22.6875 19.875 28.3651 19.875 35.3438C19.875 42.3224 25.5526 48 32.5312 48C39.5099 48 45.1875 42.3224 45.1875 35.3438C45.1875 28.3651 39.5099 22.6875 32.5312 22.6875ZM28.4587 31.2739C29.006 30.7266 29.8934 30.7266 30.4407 31.2739C30.988 31.8212 30.988 32.7086 30.4407 33.256C29.8934 33.8033 29.006 33.8033 28.4587 33.256C27.9113 32.7086 27.9113 31.8213 28.4587 31.2739ZM36.4136 39.2288C35.8663 39.7762 34.9789 39.7762 34.4316 39.2288C33.8842 38.6815 33.8842 37.7941 34.4316 37.2468C34.9789 36.6995 35.8663 36.6995 36.4136 37.2468C36.9609 37.7941 36.9609 38.6815 36.4136 39.2288ZM36.4799 33.3355L30.5137 39.3018C29.9645 39.8509 29.0742 39.851 28.5249 39.3018C27.9757 38.7527 27.9757 37.8623 28.5249 37.3131L34.4912 31.3468C35.0403 30.7977 35.9307 30.7977 36.4799 31.3468C37.0291 31.896 37.0291 32.7864 36.4799 33.3355Z" fill="#2780ED"></path></g><defs><clipPath id="clip0_1_3974"><rect width="48" height="48" fill="white"></rect></clipPath></defs></svg>