<svg xmlns="http://www.w3.org/2000/svg" width="48" height="48" viewBox="0 0 48 48" fill="none"><g clip-path="url(#clip0_1_3963)"><path d="M46.5937 2.84521H39.9439C39.1672 2.84521 38.5376 3.47486 38.5376 4.25152C38.5376 5.02817 39.1672 5.65782 39.9439 5.65782H45.1874V16.0108H39.9439C39.1672 16.0108 38.5376 16.6405 38.5376 17.4171C38.5376 18.1938 39.1672 18.8234 39.9439 18.8234H45.1874V29.1764H39.9439C39.1672 29.1764 38.5376 29.8061 38.5376 30.5827C38.5376 31.3594 39.1672 31.989 39.9439 31.989H45.1874V42.3421H39.9439C39.1672 42.3421 38.5376 42.9718 38.5376 43.7484C38.5376 44.5251 39.1672 45.1548 39.9439 45.1548H46.5937C47.3704 45.1548 48 44.5251 48 43.7484V4.25152C48 3.47486 47.3704 2.84521 46.5937 2.84521Z" fill="#2780ED"></path><path d="M6.4839 13.7513C6.48437 13.7514 6.48493 13.7515 6.4854 13.7516C5.00804 14.9537 3.72689 16.3861 2.69945 17.9969C0.933884 20.7649 0.000380852 23.9474 5.83805e-06 27.2003C-0.000931697 35.8466 -0.00149434 40.1864 2.43431 42.6653C4.88006 45.1544 9.15297 45.1544 17.6658 45.1544C26.2048 45.1544 30.4908 45.1544 32.943 42.7069C35.3964 40.2582 35.3964 35.9795 35.3964 27.4553C35.3964 22.0854 33.002 17.125 28.969 13.8046L6.4855 13.7516M13.2344 35.2148C12.5844 34.7896 12.4023 33.918 12.8274 33.268C13.2525 32.618 14.1242 32.4357 14.7742 32.861C15.8186 33.5442 16.2425 33.6121 17.6014 33.6023C18.9875 33.593 19.7919 32.5598 19.9526 31.6036C20.0319 31.132 20.0628 29.9807 18.6404 29.4779C16.5036 28.7225 15.2674 28.1284 14.3736 27.4274C13.2885 26.5763 12.7923 25.1042 13.0785 23.5854C13.3894 21.9353 14.5395 20.6221 16.0799 20.1581C16.1218 20.1454 16.1629 20.1347 16.2045 20.1232V19.459C16.2045 18.6824 16.8341 18.0527 17.6108 18.0527C18.3874 18.0527 19.0171 18.6824 19.0171 19.459V20.0314C20.077 20.2663 20.8165 20.7502 21.1117 20.9709C21.7337 21.436 21.8609 22.3173 21.3959 22.9394C20.9308 23.5613 20.0497 23.6887 19.4274 23.2235C19.1016 22.9799 18.2022 22.456 16.891 22.851C16.0921 23.0916 15.8865 23.8726 15.8425 24.1062C15.7542 24.5745 15.8615 25.0198 16.1095 25.2143C16.8983 25.8331 18.3054 26.3763 19.5777 26.826C21.8531 27.6303 23.1185 29.7377 22.7263 32.0698C22.5335 33.2168 21.9564 34.2813 21.1013 35.0668C20.4978 35.6214 19.7917 36.011 19.0171 36.2243V37.0022C19.0171 37.7788 18.3874 38.4085 17.6108 38.4085C16.8341 38.4085 16.2045 37.7788 16.2045 37.0022V36.3594C15.1918 36.2505 14.3608 35.9516 13.2344 35.2148ZM8.25791 10.992H7.14965C6.38171 10.992 5.75694 10.3671 5.75694 9.59917C5.75694 8.82252 5.12729 8.19287 4.35064 8.19287C3.57398 8.19287 2.94433 8.82252 2.94433 9.59917C2.94433 11.6921 4.48124 13.4323 6.4855 13.7517C7.1534 13.2083 7.86133 12.7118 8.60423 12.2674L8.25791 10.992Z" fill="#0050B2"></path><path d="M27.1368 10.9922L28.8673 4.62016C28.9821 4.19733 28.8933 3.74534 28.6273 3.39733C28.3612 3.04932 27.9481 2.84521 27.5101 2.84521H23.7119C21.4224 2.84521 19.253 3.79344 17.6973 5.40497C16.1416 3.79353 13.9722 2.84521 11.6828 2.84521H7.88459C7.44658 2.84521 7.03359 3.04932 6.76743 3.39733C6.50135 3.74534 6.41266 4.19733 6.52742 4.62006L8.25783 10.9922H27.1368Z" fill="#0050B2"></path></g><defs><clipPath id="clip0_1_3963"><rect width="48" height="48" fill="white"></rect></clipPath></defs></svg>